<svg viewBox="0 0 1024 1024" xmlns="http://www.w3.org/2000/svg"><path d="M582.624 530.773l82.234-86.866c35.008 15.086 73.614 14.54 101.804-13.646l229.842-229.838-44.156-44.15-160.26 168.115-30.226-28.816L922.81 126.734l-33.095-33.095L725.27 266.144l-30.227-28.816 165.133-173.23-31.594-31.594-229.84 229.84c-29.345 29.345-30.167 66.122-15.744 99.702l-86.54 82.568L77.91 26.12C-50.744 163.445 193.236 482.39 416.555 520.847L34.11 885.737c-23.798 88.815 21.494 132.635 109.147 109.146l361.155-381.498 316.69 382.24c90.926 24.362 137.906-21.085 113.216-113.207l-351.695-351.65z"/></svg>